<svg width="20" height="20" viewBox="0 0 20 20" fill="none" xmlns="http://www.w3.org/2000/svg">
<path d="M19.8438 18.8274L14.4158 13.3994C15.7201 11.8335 16.3706 9.82498 16.2318 7.79169C16.093 5.75839 15.1757 3.85688 13.6706 2.48272C12.1655 1.10856 10.1886 0.367554 8.1511 0.41385C6.1136 0.460146 4.17239 1.29018 2.73128 2.73128C1.29018 4.17239 0.460146 6.1136 0.41385 8.1511C0.367554 10.1886 1.10856 12.1655 2.48272 13.6706C3.85688 15.1757 5.75839 16.093 7.79169 16.2318C9.82498 16.3706 11.8335 15.7201 13.3994 14.4158L18.8274 19.8438L19.8438 18.8274ZM1.87501 8.34376C1.87501 7.06436 2.25439 5.81369 2.96519 4.74991C3.67598 3.68613 4.68626 2.85702 5.86827 2.36741C7.05028 1.87781 8.35093 1.7497 9.60575 1.9993C10.8606 2.2489 12.0132 2.86499 12.9179 3.76966C13.8225 4.67433 14.4386 5.82695 14.6882 7.08177C14.9378 8.33658 14.8097 9.63723 14.3201 10.8192C13.8305 12.0012 13.0014 13.0115 11.9376 13.7223C10.8738 14.4331 9.62315 14.8125 8.34376 14.8125C6.62872 14.8106 4.98448 14.1285 3.77176 12.9158C2.55905 11.703 1.87691 10.0588 1.87501 8.34376Z" fill="black"/>
</svg>
